<svg width="272" height="121" viewBox="0 0 272 121" fill="none" xmlns="http://www.w3.org/2000/svg">
<g clip-path="url(#clip0_4_7)">
<path d="M54.6753 92.3418V81.735C54.1952 82.8015 52.979 84.3402 51.0267 86.3619C49.0744 88.3835 46.498 90.2035 43.2922 91.8218C40.0863 93.4402 36.3417 94.252 32.0691 94.252C25.6574 94.252 20.0458 92.6973 15.2344 89.588C10.423 86.4786 6.68375 82.3027 4.01133 77.0656C1.33891 71.8285 0.00537109 66.0236 0.00537109 59.6404C0.00537109 53.2572 1.33891 47.4523 4.01133 42.2152C6.68375 36.9781 10.423 32.7916 15.2344 29.6557C20.0458 26.5198 25.6574 24.9492 32.0691 24.9492C36.1817 24.9492 39.7929 25.6019 42.8921 26.9019C45.9913 28.2072 48.5036 29.7459 50.4293 31.5288C52.3549 33.3116 53.6885 34.9459 54.4352 36.4316V26.8647H78.647V92.3365H54.6753V92.3418ZM23.8918 59.651C23.8918 62.6277 24.5852 65.302 25.9774 67.6632C27.3643 70.0297 29.226 71.8763 31.5463 73.2028C33.872 74.5346 36.4484 75.1979 39.2809 75.1979C42.1133 75.1979 44.8124 74.5346 47.0581 73.2028C49.3038 71.8763 51.0801 70.0244 52.3869 67.6632C53.6938 65.2967 54.3499 62.6277 54.3499 59.651C54.3499 56.6743 53.6938 54.0054 52.3869 51.6388C51.0747 49.2723 49.2984 47.4152 47.0581 46.0568C44.8124 44.7038 42.22 44.0246 39.2809 44.0246C36.3417 44.0246 33.872 44.7038 31.5463 46.0568C29.2206 47.4152 27.3643 49.2723 25.9774 51.6388C24.5852 54.0054 23.8918 56.6743 23.8918 59.651Z" fill="#1D1D1B"/>
<path d="M80.3273 26.8753H91.5504V0H115.682V26.8753H130.431V46.8103H115.682V65.0739C115.682 67.7853 116.082 69.9767 116.882 71.6534C117.682 73.3301 119.155 74.1632 121.294 74.1632C122.739 74.1632 123.966 73.8448 124.98 73.2081C125.993 72.5714 126.607 72.1469 126.825 71.9346L135.163 89.1582C134.789 89.4765 133.626 90.0655 131.674 90.9145C129.722 91.7635 127.252 92.5329 124.259 93.228C121.267 93.9177 117.928 94.2626 114.237 94.2626C107.665 94.2626 102.24 92.4161 97.962 88.7231C93.684 85.0301 91.5504 79.326 91.5504 71.6163V46.8156H80.3273V26.8806V26.8753Z" fill="#1D1D1B"/>
<path d="M187.107 92.3418V81.735C186.627 82.8015 185.41 84.3402 183.458 86.3619C181.506 88.3835 178.929 90.2035 175.724 91.8218C172.518 93.4402 168.773 94.252 164.5 94.252C158.089 94.252 152.477 92.6973 147.666 89.588C142.854 86.4786 139.115 82.3027 136.443 77.0656C133.77 71.8285 132.437 66.0236 132.437 59.6404C132.437 53.2572 133.77 47.4523 136.443 42.2152C139.115 36.9781 142.854 32.7916 147.666 29.6557C152.477 26.5198 158.089 24.9492 164.5 24.9492C168.613 24.9492 172.224 25.6019 175.323 26.9019C178.423 28.2072 180.935 29.7459 182.861 31.5288C184.786 33.3116 186.12 34.9459 186.872 36.4316V26.8647H211.084V92.3365H187.112L187.107 92.3418ZM156.323 59.651C156.323 62.6277 157.017 65.302 158.409 67.6632C159.796 70.0297 161.657 71.8763 163.978 73.2028C166.303 74.5346 168.88 75.1979 171.712 75.1979C174.545 75.1979 177.244 74.5346 179.489 73.2028C181.735 71.8763 183.511 70.0244 184.818 67.6632C186.125 65.2967 186.781 62.6277 186.781 59.651C186.781 56.6743 186.125 54.0054 184.818 51.6388C183.506 49.2723 181.73 47.4152 179.489 46.0568C177.244 44.7038 174.651 44.0246 171.712 44.0246C168.773 44.0246 166.303 44.7038 163.978 46.0568C161.652 47.4152 159.796 49.2723 158.409 51.6388C157.017 54.0054 156.323 56.6743 156.323 59.651Z" fill="#1D1D1B"/>
<path d="M237.291 92.3418H212.919V26.8753H237.291V37.0046H236.89C237.317 35.7842 238.357 34.2296 240.016 32.3406C241.67 30.4516 243.996 28.7537 246.988 27.2361C249.981 25.7186 253.64 24.9651 257.971 24.9651C261.017 24.9651 263.823 25.4321 266.388 26.3606C268.954 27.2892 270.826 28.1806 272 29.0349L262.542 48.7311C261.796 47.8291 260.473 46.8846 258.574 45.903C256.675 44.9213 254.312 44.4279 251.479 44.4279C248.22 44.4279 245.532 45.2503 243.425 46.9005C241.312 48.5507 239.766 50.5405 238.773 52.8805C237.781 55.2204 237.291 57.4278 237.291 59.4972V92.3524V92.3418Z" fill="#1D1D1B"/>
<path d="M39.0461 110.016H39.6702V120.682H39.0461V110.016Z" fill="#1D1D1B"/>
<path d="M45.6552 111.263V120.687H45.0471V109.703H45.2872L52.7603 119.445V110.022H53.3684V121.005H53.1284L45.6552 111.263Z" fill="#1D1D1B"/>
<path d="M61.2256 110.589H57.6251V110.016H65.4503V110.589H61.8497V120.682H61.2256V110.589Z" fill="#1D1D1B"/>
<path d="M69.707 110.016H74.9878V110.589H70.3311V114.871H73.9476V115.445H70.3311V120.109H75.0678V120.682H69.707V110.016Z" fill="#1D1D1B"/>
<path d="M79.7245 110.016H80.3486V120.109H84.9254V120.682H79.7245V110.016Z" fill="#1D1D1B"/>
<path d="M89.4221 110.016H90.0462V120.682H89.4221V110.016Z" fill="#1D1D1B"/>
<path d="M94.7829 115.386C94.7829 112.314 97.1833 109.894 100.16 109.894C101.648 109.894 103.072 110.483 104.032 111.534L103.552 111.932C102.704 111.009 101.456 110.499 100.16 110.499C97.5353 110.499 95.439 112.648 95.439 115.402C95.439 118.156 97.3753 120.209 100.192 120.209C101.536 120.209 102.752 119.732 103.68 118.84V115.689H99.9677V115.116H104.304V119.047C103.264 120.178 101.776 120.814 100.176 120.814C97.1033 120.814 94.7829 118.395 94.7829 115.386Z" fill="#1D1D1B"/>
<path d="M109.281 110.016H114.562V110.589H109.905V114.871H113.522V115.445H109.905V120.109H114.642V120.682H109.281V110.016ZM110.001 108.478L111.922 106.981L113.842 108.478L113.506 108.876L111.922 107.666L110.337 108.876L110.001 108.478Z" fill="#1D1D1B"/>
<path d="M119.907 111.263V120.687H119.299V109.703H119.539L127.012 119.445V110.022H127.62V121.005H127.38L119.907 111.263Z" fill="#1D1D1B"/>
<path d="M132.357 115.397C132.357 112.309 134.741 109.889 137.766 109.889C139.254 109.889 140.646 110.478 141.606 111.529L141.126 111.927C140.278 111.003 139.062 110.494 137.766 110.494C135.093 110.494 133.013 112.643 133.013 115.397C133.013 118.151 134.949 120.204 137.766 120.204C139.078 120.204 140.326 119.742 141.27 118.724L141.718 119.106C140.63 120.268 139.174 120.809 137.702 120.809C134.597 120.809 132.357 118.389 132.357 115.397Z" fill="#1D1D1B"/>
<path d="M146.295 110.016H146.919V120.682H146.295V110.016Z" fill="#1D1D1B"/>
<path d="M155.544 109.703H155.784L159.817 120.687H159.145L157.961 117.44H153.336L152.152 120.687H151.496L155.544 109.703ZM157.753 116.861L155.656 111.115L153.544 116.861H157.753Z" fill="#1D1D1B"/>
<path d="M170.091 110.016H173.323C176.716 110.016 179.212 112.277 179.212 115.333C179.212 118.389 176.716 120.682 173.323 120.682H170.091V110.016ZM173.323 120.109C176.348 120.109 178.556 118.087 178.556 115.333C178.556 112.579 176.364 110.589 173.323 110.589H170.715V120.109H173.323Z" fill="#1D1D1B"/>
<path d="M183.949 110.016H184.573V120.682H183.949V110.016Z" fill="#1D1D1B"/>
<path d="M189.31 115.386C189.31 112.314 191.71 109.894 194.687 109.894C196.175 109.894 197.599 110.483 198.559 111.534L198.079 111.932C197.231 111.009 195.983 110.499 194.687 110.499C192.062 110.499 189.966 112.648 189.966 115.402C189.966 118.156 191.902 120.209 194.719 120.209C196.063 120.209 197.279 119.732 198.207 118.84V115.689H194.495V115.116H198.831V119.047C197.791 120.178 196.303 120.814 194.703 120.814C191.63 120.814 189.31 118.395 189.31 115.386Z" fill="#1D1D1B"/>
<path d="M203.808 110.016H204.432V120.682H203.808V110.016Z" fill="#1D1D1B"/>
<path d="M212.289 110.589H208.689V110.016H216.514V110.589H212.913V120.682H212.289V110.589Z" fill="#1D1D1B"/>
<path d="M222.739 109.703H222.979L227.012 120.687H226.34L225.155 117.44H220.531L219.346 120.687H218.69L222.739 109.703ZM224.947 116.861L222.851 111.115L220.739 116.861H224.947Z" fill="#1D1D1B"/>
<path d="M231.588 110.016H232.212V120.109H236.789V120.682H231.588V110.016Z" fill="#1D1D1B"/>
</g>
<defs>
<clipPath id="clip0_4_7">
<rect width="272" height="121" fill="white"/>
</clipPath>
</defs>
</svg>
